<svg width="389" height="286" viewBox="0 0 389 286" fill="none" xmlns="http://www.w3.org/2000/svg">
<rect width="389" height="286" fill="white"/>
<g filter="url(#filter0_d_0_1)">
<rect x="40" y="40" width="309" height="206" rx="10" fill="#FBFBFB"/>
</g>
<g filter="url(#filter1_d_0_1)">
<path d="M77.8239 67.0909H86.142V91.2273C86.142 93.4886 85.608 95.4659 84.5398 97.1591C83.4716 98.8409 81.9943 100.148 80.108 101.08C78.2216 102.011 76.0455 102.477 73.5795 102.477C71.4091 102.477 69.4318 102.097 67.6477 101.335C65.8636 100.574 64.4432 99.3921 63.3864 97.7898C62.3409 96.1875 61.8239 94.1364 61.8352 91.6364H70.2386C70.2841 92.9886 70.642 94.0284 71.3125 94.7557C71.983 95.4716 72.8977 95.8296 74.0568 95.8296C76.5455 95.8296 77.8011 94.2955 77.8239 91.2273V67.0909ZM98.9901 102H89.9219L101.7 67.0909H112.933L124.712 102H115.643L113.342 94.6705H101.291L98.9901 102ZM103.303 88.2614H111.331L107.445 75.8864H107.172L103.303 88.2614ZM158.18 67.0909V102H151.021L137.129 81.8523H136.908V102H128.47V67.0909H135.732L149.47 87.2046H149.76V67.0909H158.18ZM193.196 67.0909V102H186.037L172.145 81.8523H171.923V102H163.486V67.0909H170.747L184.486 87.2046H184.776V67.0909H193.196ZM206.939 67.0909V102H198.501V67.0909H206.939ZM231.105 77.5568C230.991 76.3068 230.486 75.3352 229.588 74.6421C228.702 73.9375 227.435 73.5852 225.787 73.5852C224.151 73.5852 222.923 73.8977 222.105 74.5227C221.287 75.1364 220.872 75.9205 220.861 76.875C220.827 77.9091 221.276 78.7216 222.207 79.3125C223.139 79.8921 224.395 80.3523 225.974 80.6932L228.974 81.375C232.418 82.1364 235.054 83.3807 236.884 85.108C238.724 86.8352 239.651 89.0909 239.662 91.875C239.651 95.1932 238.423 97.7841 235.98 99.6477C233.537 101.511 230.139 102.443 225.787 102.443C221.401 102.443 217.889 101.455 215.253 99.4773C212.628 97.4886 211.287 94.4546 211.23 90.375H219.31C219.401 92.0568 220.02 93.3296 221.168 94.1932C222.315 95.0455 223.821 95.4716 225.685 95.4716C227.378 95.4716 228.702 95.1364 229.656 94.4659C230.611 93.7955 231.094 92.9261 231.105 91.858C231.094 90.8807 230.639 90.1023 229.741 89.5227C228.844 88.9318 227.435 88.4148 225.514 87.9716L221.866 87.1193C218.855 86.4261 216.474 85.3068 214.724 83.7614C212.986 82.2046 212.122 80.1023 212.134 77.4546C212.122 75.2841 212.702 73.3864 213.872 71.7614C215.043 70.1364 216.656 68.875 218.713 67.9773C220.781 67.0682 223.145 66.6136 225.804 66.6136C228.509 66.6136 230.855 67.0739 232.844 67.9943C234.844 68.9034 236.395 70.1818 237.497 71.8296C238.599 73.4659 239.162 75.375 239.185 77.5568H231.105ZM62.5 131.943V125.091H92.0057V131.943H81.4205V160H73.1023V131.943H62.5ZM96.1264 160V125.091H110.547C113.161 125.091 115.416 125.563 117.314 126.506C119.223 127.449 120.695 128.79 121.729 130.528C122.763 132.256 123.28 134.318 123.28 136.716C123.28 139.125 122.751 141.176 121.695 142.869C120.638 144.563 119.149 145.841 117.229 146.705L124.473 160H115.268L108.893 148.051H104.564V160H96.1264ZM104.564 141.403H108.723C110.621 141.403 112.064 141.028 113.053 140.278C114.041 139.517 114.536 138.33 114.536 136.716C114.536 133.5 112.598 131.892 108.723 131.892H104.564V141.403ZM127.908 160V125.091H152.249V131.943H136.345V139.102H151.004V145.972H136.345V153.148H152.249V160H127.908ZM157.533 160V125.091H181.362V131.943H165.97V139.102H179.845V145.972H165.97V160H157.533ZM185.611 160V125.091H209.44V131.943H194.048V139.102H207.923V145.972H194.048V160H185.611ZM213.689 160V125.091H222.126V153.148H236.649V160H213.689ZM241.017 160V125.091H265.358V131.943H249.455V139.102H264.114V145.972H249.455V153.148H265.358V160H241.017ZM270.642 160V125.091H285.063C287.676 125.091 289.932 125.563 291.83 126.506C293.739 127.449 295.21 128.79 296.244 130.528C297.278 132.256 297.795 134.318 297.795 136.716C297.795 139.125 297.267 141.176 296.21 142.869C295.153 144.563 293.665 145.841 291.744 146.705L298.989 160H289.784L283.409 148.051H279.08V160H270.642ZM279.08 141.403H283.239C285.136 141.403 286.58 141.028 287.568 140.278C288.557 139.517 289.051 138.33 289.051 136.716C289.051 133.5 287.114 131.892 283.239 131.892H279.08V141.403ZM76.5455 218H63.642V183.091H76.5284C80.0852 183.091 83.1477 183.79 85.7159 185.188C88.2955 186.574 90.2841 188.568 91.6818 191.17C93.0796 193.773 93.7784 196.892 93.7784 200.528C93.7784 204.165 93.0796 207.29 91.6818 209.903C90.2955 212.506 88.3125 214.506 85.733 215.903C83.1534 217.301 80.0909 218 76.5455 218ZM72.0795 210.807H76.2216C79.1648 210.807 81.4148 210.04 82.9716 208.506C84.5398 206.96 85.3239 204.301 85.3239 200.528C85.3239 196.767 84.5341 194.119 82.9545 192.585C81.3864 191.051 79.1023 190.284 76.1023 190.284H72.0795V210.807ZM98.7046 218V183.091H123.045V189.943H107.142V197.102H121.801V203.972H107.142V211.148H123.045V218H98.7046ZM147.199 193.557C147.085 192.307 146.58 191.335 145.682 190.642C144.795 189.938 143.528 189.585 141.881 189.585C140.244 189.585 139.017 189.898 138.199 190.523C137.381 191.136 136.966 191.92 136.955 192.875C136.92 193.909 137.369 194.722 138.301 195.313C139.233 195.892 140.489 196.352 142.068 196.693L145.068 197.375C148.511 198.136 151.148 199.381 152.977 201.108C154.818 202.835 155.744 205.091 155.756 207.875C155.744 211.193 154.517 213.784 152.074 215.648C149.631 217.511 146.233 218.443 141.881 218.443C137.494 218.443 133.983 217.455 131.347 215.477C128.722 213.489 127.381 210.455 127.324 206.375H135.403C135.494 208.057 136.114 209.33 137.261 210.193C138.409 211.045 139.915 211.472 141.778 211.472C143.472 211.472 144.795 211.136 145.75 210.466C146.705 209.795 147.188 208.926 147.199 207.858C147.188 206.881 146.733 206.102 145.835 205.523C144.938 204.932 143.528 204.415 141.608 203.972L137.96 203.119C134.949 202.426 132.568 201.307 130.818 199.761C129.08 198.205 128.216 196.102 128.227 193.455C128.216 191.284 128.795 189.386 129.966 187.761C131.136 186.136 132.75 184.875 134.807 183.977C136.875 183.068 139.239 182.614 141.898 182.614C144.602 182.614 146.949 183.074 148.938 183.994C150.938 184.903 152.489 186.182 153.591 187.83C154.693 189.466 155.256 191.375 155.278 193.557H147.199ZM168.455 183.091V218H160.017V183.091H168.455ZM196.661 194.494C196.286 193.074 195.541 191.972 194.428 191.188C193.325 190.403 191.928 190.011 190.234 190.011C187.7 190.011 185.689 190.926 184.2 192.756C182.723 194.585 181.984 197.165 181.984 200.494C181.984 203.847 182.706 206.449 184.149 208.301C185.592 210.153 187.621 211.08 190.234 211.08C192.518 211.08 194.28 210.54 195.518 209.46C196.757 208.369 197.399 206.903 197.445 205.063H190.524V198.909H205.575V203.528C205.575 206.653 204.916 209.335 203.598 211.574C202.28 213.801 200.462 215.511 198.143 216.705C195.825 217.886 193.166 218.477 190.166 218.477C186.837 218.477 183.911 217.756 181.388 216.313C178.865 214.858 176.899 212.795 175.49 210.125C174.081 207.455 173.376 204.278 173.376 200.597C173.376 196.79 174.121 193.545 175.609 190.864C177.098 188.182 179.104 186.136 181.626 184.727C184.149 183.318 186.962 182.614 190.064 182.614C192.757 182.614 195.195 183.119 197.376 184.131C199.558 185.142 201.337 186.545 202.712 188.341C204.087 190.125 204.916 192.176 205.2 194.494H196.661ZM240.259 183.091V218H233.099L219.207 197.852H218.986V218H210.548V183.091H217.81L231.548 203.205H231.838V183.091H240.259Z" fill="black"/>
</g>
<defs>
<filter id="filter0_d_0_1" x="0" y="0" width="389" height="286" filterUnits="userSpaceOnUse" color-interpolation-filters="sRGB">
<feFlood flood-opacity="0" result="BackgroundImageFix"/>
<feColorMatrix in="SourceAlpha" type="matrix" values="0 0 0 0 0 0 0 0 0 0 0 0 0 0 0 0 0 0 127 0" result="hardAlpha"/>
<feMorphology radius="10" operator="dilate" in="SourceAlpha" result="effect1_dropShadow_0_1"/>
<feOffset/>
<feGaussianBlur stdDeviation="15"/>
<feComposite in2="hardAlpha" operator="out"/>
<feColorMatrix type="matrix" values="0 0 0 0 0 0 0 0 0 0 0 0 0 0 0 0 0 0 0.25 0"/>
<feBlend mode="normal" in2="BackgroundImageFix" result="effect1_dropShadow_0_1"/>
<feBlend mode="normal" in="SourceGraphic" in2="effect1_dropShadow_0_1" result="shape"/>
</filter>
<filter id="filter1_d_0_1" x="51.8182" y="56.6136" width="257.17" height="171.864" filterUnits="userSpaceOnUse" color-interpolation-filters="sRGB">
<feFlood flood-opacity="0" result="BackgroundImageFix"/>
<feColorMatrix in="SourceAlpha" type="matrix" values="0 0 0 0 0 0 0 0 0 0 0 0 0 0 0 0 0 0 127 0" result="hardAlpha"/>
<feOffset/>
<feGaussianBlur stdDeviation="5"/>
<feComposite in2="hardAlpha" operator="out"/>
<feColorMatrix type="matrix" values="0 0 0 0 0 0 0 0 0 0 0 0 0 0 0 0 0 0 0.2 0"/>
<feBlend mode="normal" in2="BackgroundImageFix" result="effect1_dropShadow_0_1"/>
<feBlend mode="normal" in="SourceGraphic" in2="effect1_dropShadow_0_1" result="shape"/>
</filter>
</defs>
</svg>
